<svg version="1.0" xmlns="http://www.w3.org/2000/svg" width="128" height="128" viewBox="0 0 96 96"><path d="M.3 5.8c.7 7 2.8 11.8 5.7 12.7 2.2.7 6-1 6-2.8 0-.7 1.4.3 3.1 2.1l3 3.3-3 3.4c-3.8 4.4-5.7 12.4-4.2 18.1 1.6 5.8 6.3 12.5 14.1 19.6 6.3 5.9 18.6 14.9 22.1 16.3.9.3 4.7-1.6 9.6-4.8 9.1-6.2 11.6-6.2 10.6-.2s2.1 10.8 13 20.4l2.7 2.5-.5-5.1c-.4-4.5-.2-5.1 1.7-5.6 1.3-.4 1.9-1.1 1.5-2-.4-1.1.4-1.4 4.1-1.2 6.2.3 7-.3 3.5-2.6-1.5-1-2.4-1.9-1.8-1.9 1.5 0-8.5-9.1-11.3-10.1-1.4-.5-4.1-.9-6.1-.7-6.7.3-6.7-.9-.3-7.5 8.7-9.2 11.7-14.8 11.7-22.2-.1-4.8-.6-6.9-2.8-10.2-6.8-10.6-20.2-13.2-30.8-6l-3.4 2.4-5.4-3c-5.5-3.1-14-4.4-18.5-2.8-1.5.6-3 .1-5.7-2.1-3.7-3-3.7-3-1.7-5C21.9 6.1 16.9 1.2 6.6.3L-.2-.3l.5 6.1z"/></svg>